<svg width="203" height="103" viewBox="0 0 203 103" fill="none" xmlns="http://www.w3.org/2000/svg">
<path d="M90.8787 85.6998C83.9468 93.4292 74.8267 98.9135 64.7047 101.439C54.5827 103.965 43.9275 103.415 34.1253 99.8617C24.323 96.3081 15.8276 89.9151 9.74408 81.5143C3.66061 73.1136 0.270757 63.094 0.01555 52.7591C-0.239657 42.4243 2.65159 32.2526 8.31315 23.5673C13.9747 14.8821 22.1445 8.08537 31.7596 4.06144C41.3747 0.0375137 51.9901 -1.02736 62.2246 1.00536C72.4592 3.03808 81.8391 8.07429 89.1441 15.4588L81.496 22.8798C75.6951 17.0158 68.2465 13.0166 60.1193 11.4024C51.9921 9.78824 43.5625 10.6338 35.9272 13.8292C28.2919 17.0246 21.8043 22.4219 17.3085 29.3188C12.8126 36.2157 10.5167 44.293 10.7194 52.4999C10.922 60.7067 13.6139 68.6632 18.4448 75.3342C23.2756 82.0052 30.0218 87.0819 37.8058 89.9039C45.5897 92.7258 54.0509 93.1623 62.0888 91.1566C70.1266 89.1508 77.3689 84.7958 82.8734 78.6579L90.8787 85.6998Z" fill="white"/>
<path d="M75.9725 28.0213C71.4411 23.2895 65.5854 20.0378 59.1734 18.6925C52.7614 17.3472 46.0925 17.9713 40.0414 20.4828C33.9902 22.9943 28.8395 27.276 25.2646 32.7664C21.6897 38.2567 19.8576 44.6993 20.0086 51.2492C20.1597 57.7991 22.2867 64.1504 26.1109 69.4701C29.935 74.7898 35.2777 78.8296 41.4381 81.0595C47.5986 83.2895 54.2891 83.6055 60.6323 81.9661C66.9755 80.3267 72.6752 76.8085 76.9837 71.8729L72.9311 68.3352C69.3357 72.4538 64.5795 75.3897 59.2862 76.7577C53.993 78.1257 48.4099 77.8621 43.2691 76.0012C38.1284 74.1404 33.6701 70.7693 30.4789 66.3301C27.2877 61.8909 25.5127 56.5909 25.3867 51.1252C25.2607 45.6595 26.7895 40.2833 29.7727 35.7017C32.7558 31.1201 37.054 27.5471 42.1035 25.4513C47.1531 23.3555 52.7181 22.8348 58.0688 23.9574C63.4194 25.08 68.3059 27.7935 72.0873 31.7421L75.9725 28.0213Z" fill="white"/>
<path d="M69 51.5C69 60.6127 61.3888 68 52 68C42.6112 68 35 60.6127 35 51.5C35 42.3873 42.6112 35 52 35C61.3888 35 69 42.3873 69 51.5Z" fill="white"/>
<path d="M79.1591 48.8636V64H71.8977V37.8182H78.8182V42.4375H79.125C79.7046 40.9148 80.6761 39.7102 82.0398 38.8239C83.4034 37.9261 85.0568 37.4773 87 37.4773C88.8182 37.4773 90.4034 37.875 91.7557 38.6704C93.108 39.4659 94.1591 40.6023 94.9091 42.0795C95.6591 43.5454 96.0341 45.2954 96.0341 47.3295V64H88.7727V48.625C88.7841 47.0227 88.375 45.7727 87.5455 44.875C86.7159 43.9659 85.5739 43.5114 84.1193 43.5114C83.1421 43.5114 82.2784 43.7216 81.5284 44.142C80.7898 44.5625 80.2102 45.1761 79.7898 45.9829C79.3807 46.7784 79.1705 47.7386 79.1591 48.8636Z" fill="white"/>
<path d="M109.018 48.8636V64H101.757V37.8182H108.678V42.4375H108.984C109.564 40.9148 110.536 39.7102 111.899 38.8239C113.263 37.9261 114.916 37.4773 116.859 37.4773C118.678 37.4773 120.263 37.875 121.615 38.6704C122.967 39.4659 124.018 40.6023 124.768 42.0795C125.518 43.5454 125.893 45.2954 125.893 47.3295V64H118.632V48.625C118.643 47.0227 118.234 45.7727 117.405 44.875C116.575 43.9659 115.433 43.5114 113.979 43.5114C113.001 43.5114 112.138 43.7216 111.388 44.142C110.649 44.5625 110.07 45.1761 109.649 45.9829C109.24 46.7784 109.03 47.7386 109.018 48.8636Z" fill="white"/>
<path d="M143.548 64.5114C140.855 64.5114 138.537 63.9659 136.594 62.875C134.662 61.7727 133.173 60.2159 132.128 58.2045C131.082 56.1818 130.56 53.7898 130.56 51.0284C130.56 48.3352 131.082 45.9716 132.128 43.9375C133.173 41.9034 134.645 40.3182 136.543 39.1818C138.452 38.0454 140.69 37.4773 143.259 37.4773C144.986 37.4773 146.594 37.7557 148.082 38.3125C149.582 38.8579 150.889 39.6818 152.003 40.7841C153.128 41.8864 154.003 43.2727 154.628 44.9432C155.253 46.6023 155.565 48.5455 155.565 50.7727V52.767H133.457V48.267H148.73C148.73 47.2216 148.503 46.2954 148.048 45.4886C147.594 44.6818 146.963 44.0511 146.156 43.5966C145.361 43.1307 144.435 42.8977 143.378 42.8977C142.276 42.8977 141.298 43.1534 140.446 43.6648C139.605 44.1648 138.946 44.8409 138.469 45.6932C137.991 46.5341 137.747 47.4716 137.736 48.5057V52.7841C137.736 54.0795 137.974 55.1989 138.452 56.142C138.94 57.0852 139.628 57.8125 140.514 58.3239C141.401 58.8352 142.452 59.0909 143.668 59.0909C144.474 59.0909 145.213 58.9773 145.884 58.75C146.554 58.5227 147.128 58.1818 147.605 57.7273C148.082 57.2727 148.446 56.7159 148.696 56.0568L155.412 56.5C155.071 58.1136 154.372 59.5227 153.315 60.7273C152.27 61.9204 150.918 62.8523 149.259 63.5227C147.611 64.1818 145.707 64.5114 143.548 64.5114Z" fill="white"/>
<path d="M172.134 64.5114C169.452 64.5114 167.145 63.9432 165.213 62.8068C163.293 61.6591 161.815 60.0682 160.781 58.0341C159.759 56 159.247 53.6591 159.247 51.0114C159.247 48.3295 159.764 45.9773 160.798 43.9545C161.844 41.9204 163.327 40.3352 165.247 39.1989C167.168 38.0511 169.452 37.4773 172.099 37.4773C174.384 37.4773 176.384 37.892 178.099 38.7216C179.815 39.5511 181.173 40.7159 182.173 42.2159C183.173 43.7159 183.724 45.4773 183.827 47.5H176.974C176.781 46.1932 176.27 45.142 175.44 44.3466C174.622 43.5398 173.548 43.1364 172.219 43.1364C171.094 43.1364 170.111 43.4432 169.27 44.0568C168.44 44.6591 167.793 45.5398 167.327 46.6989C166.861 47.858 166.628 49.2614 166.628 50.9091C166.628 52.5795 166.855 54 167.31 55.1704C167.776 56.3409 168.429 57.2329 169.27 57.8466C170.111 58.4602 171.094 58.767 172.219 58.767C173.048 58.767 173.793 58.5966 174.452 58.2557C175.122 57.9148 175.673 57.4205 176.105 56.7727C176.548 56.1136 176.838 55.3239 176.974 54.4034H183.827C183.713 56.4034 183.168 58.1648 182.19 59.6875C181.224 61.1989 179.889 62.3807 178.185 63.2329C176.48 64.0852 174.463 64.5114 172.134 64.5114Z" fill="white"/>
<path d="M202.402 37.8182V43.2727H186.635V37.8182H202.402ZM190.214 31.5455H197.476V55.9545C197.476 56.625 197.578 57.1477 197.783 57.5227C197.987 57.8864 198.271 58.142 198.635 58.2898C199.01 58.4375 199.442 58.5114 199.93 58.5114C200.271 58.5114 200.612 58.483 200.953 58.4261C201.294 58.358 201.555 58.3068 201.737 58.2727L202.879 63.6761C202.516 63.7898 202.004 63.9204 201.345 64.0682C200.686 64.2273 199.885 64.3239 198.942 64.3579C197.192 64.4261 195.658 64.1932 194.339 63.6591C193.033 63.125 192.016 62.2954 191.288 61.1704C190.561 60.0454 190.203 58.625 190.214 56.9091V31.5455Z" fill="white"/>
</svg>
